<svg width="1238" height="160" viewBox="0 0 1238 160" fill="none" xmlns="http://www.w3.org/2000/svg">
<g clip-path="url(#clip0_717_721)">
<rect width="1238" height="160" fill="white"/>
<path d="M1078.95 251.59C1068.44 241.828 1060.4 229.714 1055.49 216.241C1050.58 202.769 1048.93 188.324 1050.69 174.092C1052.45 159.86 1057.55 146.248 1065.59 134.374C1073.63 122.501 1084.38 112.704 1096.94 105.789C1109.5 98.8738 1123.53 95.0381 1137.86 94.5967C1152.19 94.1554 1166.42 97.1209 1179.39 103.25C1192.35 109.379 1203.68 118.496 1212.43 129.853C1221.19 141.209 1227.12 154.481 1229.75 168.578L1213.16 171.671C1211.02 160.199 1206.19 149.398 1199.07 140.155C1191.94 130.913 1182.73 123.493 1172.18 118.505C1161.63 113.517 1150.04 111.104 1138.38 111.463C1126.71 111.822 1115.3 114.944 1105.08 120.572C1094.85 126.199 1086.11 134.172 1079.57 143.835C1073.02 153.499 1068.87 164.577 1067.44 176.159C1066.01 187.741 1067.35 199.497 1071.34 210.461C1075.34 221.425 1081.88 231.285 1090.43 239.229L1078.95 251.59Z" fill="#0085FF" fill-opacity="0.07"/>
<path d="M-11.3241 -74.5889C2.99597 -73.8376 16.9334 -69.6993 29.3431 -62.5142C41.7529 -55.3291 52.2808 -45.3022 60.062 -33.2572C67.8431 -21.2122 72.6554 -7.49292 74.1035 6.77351C75.5516 21.0399 73.5941 35.4464 68.3919 48.8092C63.1897 62.172 54.8913 74.1099 44.1784 83.642C33.4655 93.1741 20.6438 100.028 6.7668 103.642C-7.1102 107.255 -21.6465 107.525 -35.6479 104.428C-49.6492 101.331 -62.716 94.9565 -73.7747 85.8278L-62.5766 72.2621C-53.664 79.6191 -43.1331 84.7566 -31.849 87.2524C-20.5649 89.7482 -8.84967 89.5311 2.33421 86.6189C13.5181 83.7068 23.8514 78.1827 32.4853 70.5004C41.1191 62.8182 47.8071 53.1971 51.9997 42.4277C56.1923 31.6582 57.7698 20.0476 56.6028 8.54987C55.4358 -2.94785 51.5574 -14.0046 45.2863 -23.712C39.0153 -33.4194 30.5305 -41.5005 20.5291 -47.2911C10.5278 -53.0818 -0.704817 -56.417 -12.2458 -57.0225L-11.3241 -74.5889Z" fill="#FA642E" fill-opacity="0.1"/>
</g>
<defs>
<clipPath id="clip0_717_721">
<rect width="1238" height="160" fill="white"/>
</clipPath>
</defs>
</svg>
