<svg width="42" height="36" viewBox="0 0 42 36" fill="none" xmlns="http://www.w3.org/2000/svg">
<circle cx="15" cy="15" r="15" fill="#E8A325" fill-opacity="0.8"/>
<g clip-path="url(#clip0_528_3801)">
<path d="M40 32H12C10.8973 32 10 31.1026 10 30V11.3333C10 10.2306 10.8973 9.33331 12 9.33331H13.3333C13.7013 9.33331 14 9.63198 14 9.99998C14 10.368 13.7013 10.6666 13.3333 10.6666H12C11.632 10.6666 11.3333 10.9653 11.3333 11.3333V30C11.3333 30.368 11.632 30.6666 12 30.6666H40C40.368 30.6666 40.6667 30.368 40.6667 30V11.3333C40.6667 10.9653 40.368 10.6666 40 10.6666H38.6667C38.2987 10.6666 38 10.368 38 9.99998C38 9.63198 38.2987 9.33331 38.6667 9.33331H40C41.1027 9.33331 42 10.2306 42 11.3333V30C42 31.1026 41.1027 32 40 32Z" fill="black"/>
<path d="M30.6666 36H21.3333C21.0639 36 20.8199 35.8374 20.7173 35.588C20.6133 35.3387 20.6706 35.052 20.8613 34.8614C22.6159 33.1067 22.6386 31.408 22.6386 31.336C22.6399 30.9694 22.9386 30.6667 23.3066 30.6667H28.6666C29.0333 30.6667 29.3319 30.9627 29.3333 31.3294C29.3346 31.4134 29.3866 33.1107 31.1386 34.8614C31.3293 35.052 31.3866 35.3387 31.2826 35.588C31.1799 35.8374 30.9359 36 30.6666 36ZM22.7613 34.6667H29.2373C28.4906 33.5987 28.1946 32.6174 28.0773 32H23.9039C23.7906 32.62 23.5026 33.6 22.7613 34.6667Z" fill="black"/>
<path d="M41.3333 28H10.6667C10.2987 28 10 27.7014 10 27.3334C10 26.9654 10.2987 26.6667 10.6667 26.6667H41.3333C41.7013 26.6667 42 26.9654 42 27.3334C42 27.7014 41.7013 28 41.3333 28Z" fill="black"/>
<path d="M26.0007 17.3333C24.0927 17.3333 22.1847 16.768 20.29 15.6386C19.7007 15.2853 19.334 14.6293 19.334 13.924V9.99998C19.334 9.63198 19.6327 9.33331 20.0007 9.33331C20.3687 9.33331 20.6673 9.63198 20.6673 9.99998V13.924C20.6673 14.1586 20.7873 14.3826 20.974 14.4933C24.3567 16.5106 27.6447 16.5106 31.0273 14.4933C31.214 14.3826 31.334 14.1586 31.334 13.924V9.99998C31.334 9.63198 31.6327 9.33331 32.0007 9.33331C32.3687 9.33331 32.6673 9.63198 32.6673 9.99998V13.924C32.6673 14.6293 32.3007 15.2853 31.7113 15.6386C29.8167 16.768 27.9087 17.3333 26.0007 17.3333Z" fill="black"/>
<path d="M25.9993 13.3333C25.9047 13.3333 25.8087 13.3133 25.7207 13.272L17.054 9.272C16.8167 9.16266 16.666 8.92666 16.666 8.66666C16.666 8.40666 16.8167 8.17066 17.054 8.06133L25.7207 4.06133C25.898 3.97866 26.102 3.97866 26.2793 4.06133L34.946 8.06133C35.182 8.17066 35.3327 8.40666 35.3327 8.66666C35.3327 8.92666 35.182 9.16266 34.9447 9.272L26.278 13.272C26.19 13.3133 26.094 13.3333 25.9993 13.3333ZM18.9233 8.66666L25.9993 11.932L33.0753 8.66666L25.9993 5.40133L18.9233 8.66666Z" fill="black"/>
</g>
<defs>
<clipPath id="clip0_528_3801">
<rect width="32" height="32" fill="white" transform="translate(10 4)"/>
</clipPath>
</defs>
</svg>
