<svg width="74" height="24" viewBox="0 0 74 24" fill="none" xmlns="http://www.w3.org/2000/svg">
<g clip-path="url(#clip0_155_449)">
<path d="M9.05583 0.00219727H9.7097C11.9797 0.0515459 14.2128 0.964495 15.8166 2.58066C15.2244 3.18518 14.6199 3.76503 14.04 4.36955C13.1394 3.5553 12.0538 2.9261 10.8694 2.70403C9.11751 2.33392 7.22993 2.66702 5.76181 3.66633C4.15798 4.71499 3.07231 6.49154 2.8379 8.39146C2.57882 10.2667 3.10932 12.2407 4.3307 13.6964C5.50273 15.1152 7.29161 16.0035 9.14219 16.0652C10.8694 16.1639 12.6706 15.6334 13.929 14.4243C14.916 13.5731 15.3724 12.2777 15.5205 11.0193C13.4725 11.0193 11.4246 11.0316 9.37659 11.0193V8.47782H18.0003C18.4444 11.2043 17.8029 14.2763 15.7302 16.2255C14.3485 17.6073 12.4362 18.4216 10.4869 18.5819C8.59935 18.767 6.65008 18.4092 4.97223 17.4963C2.96128 16.4229 1.35745 14.6094 0.567868 12.4751C-0.172361 10.5134 -0.184698 8.29276 0.506182 6.31882C1.13538 4.51759 2.34442 2.9261 3.8989 1.81576C5.39169 0.717752 7.20526 0.113232 9.05583 0.00219727Z" fill="#3780FF"/>
<path d="M58.5273 0.643555H61.1675V18.261C60.2916 18.261 59.4033 18.2733 58.5273 18.2487C58.5397 12.3885 58.5273 6.51604 58.5273 0.643555Z" fill="#38B137"/>
<path d="M23.8724 6.75055C25.5009 6.44212 27.2651 6.78756 28.6099 7.7622C29.8312 8.6258 30.6825 9.98289 30.9416 11.4633C31.2747 13.1782 30.8552 15.0535 29.7449 16.4105C28.5482 17.928 26.5866 18.7423 24.6743 18.6189C22.9224 18.5202 21.2199 17.6443 20.1836 16.2131C19.0116 14.634 18.7278 12.4627 19.3693 10.6121C20.0109 8.6258 21.8244 7.10833 23.8724 6.75055ZM24.2425 9.09461C23.5763 9.26733 22.9594 9.64978 22.5153 10.1926C21.3186 11.6237 21.3926 13.9554 22.7127 15.2879C23.4653 16.0528 24.6003 16.4105 25.6489 16.2008C26.6236 16.0281 27.4748 15.3742 27.9437 14.5106C28.7579 13.0425 28.5235 11.0192 27.2774 9.87185C26.4755 9.13162 25.3035 8.82319 24.2425 9.09461Z" fill="#FA3913"/>
<path d="M36.9496 6.75048C38.8125 6.39271 40.8481 6.91087 42.2422 8.21861C44.5122 10.2542 44.759 14.0664 42.8221 16.4105C41.65 17.8909 39.7501 18.7052 37.8749 18.6188C36.086 18.5695 34.3218 17.6812 33.2608 16.2131C32.0641 14.5969 31.805 12.3762 32.4835 10.4886C33.1621 8.56405 34.9386 7.09592 36.9496 6.75048ZM37.3197 9.09454C36.6535 9.26726 36.0366 9.64971 35.5925 10.1802C34.4081 11.5866 34.4575 13.8814 35.7282 15.2261C36.4808 16.028 37.6528 16.4228 38.7385 16.2007C39.7008 16.0157 40.5644 15.3742 41.0332 14.5106C41.8351 13.0301 41.6007 11.0068 40.3423 9.85945C39.5404 9.11922 38.3683 8.82313 37.3197 9.09454Z" fill="#FCBD06"/>
<path d="M48.0411 7.46618C49.4599 6.5779 51.3474 6.33116 52.8773 7.09606C53.3584 7.3058 53.7532 7.66357 54.1356 8.02135C54.148 7.68825 54.1356 7.34281 54.148 6.99737C54.9746 7.0097 55.8012 6.99737 56.6401 7.0097V17.8911C56.6277 19.5319 56.2083 21.2715 55.0239 22.4682C53.7285 23.7882 51.7422 24.1954 49.9533 23.9239C48.0411 23.6402 46.3756 22.2461 45.6353 20.4819C46.3756 20.1241 47.1528 19.8403 47.9177 19.5072C48.3495 20.5189 49.2255 21.3825 50.3235 21.5799C51.4215 21.7773 52.6922 21.5059 53.4078 20.5929C54.1727 19.6553 54.1727 18.3722 54.1356 17.2249C53.5681 17.78 52.9143 18.2735 52.1247 18.4586C50.4098 18.9397 48.5222 18.3475 47.2022 17.1879C45.8698 16.0282 45.0802 14.2393 45.1542 12.4627C45.1912 10.4518 46.3262 8.51484 48.0411 7.46618ZM50.5949 9.04533C49.8423 9.16871 49.1391 9.58817 48.6579 10.168C47.4983 11.5498 47.4983 13.7581 48.6703 15.1152C49.3365 15.9171 50.4098 16.3613 51.4461 16.2502C52.4208 16.1515 53.3214 15.5347 53.8025 14.6834C54.6168 13.24 54.4811 11.2784 53.3831 10.02C52.7045 9.24273 51.6189 8.86028 50.5949 9.04533Z" fill="#3780FF"/>
<path d="M64.3383 8.09526C65.8188 6.7135 68.1012 6.24469 70.0011 6.97258C71.8023 7.65112 72.9497 9.36599 73.5295 11.1302C70.8524 12.2405 68.1875 13.3386 65.5104 14.4489C65.8805 15.1521 66.448 15.7936 67.2129 16.0527C68.2862 16.4352 69.5693 16.2995 70.4699 15.5839C70.8277 15.3125 71.1114 14.9547 71.3828 14.6093C72.0614 15.0658 72.7399 15.5099 73.4185 15.9664C72.4562 17.4098 70.84 18.4215 69.1005 18.5818C67.1759 18.8162 65.1279 18.076 63.8819 16.5709C61.8339 14.2022 62.0313 10.2296 64.3383 8.09526ZM65.6584 10.3776C65.239 10.9822 65.0662 11.7224 65.0786 12.4503C66.8675 11.71 68.6563 10.9698 70.4452 10.2173C70.1491 9.52637 69.4336 9.10691 68.7057 8.99587C67.5337 8.78614 66.3123 9.41534 65.6584 10.3776Z" fill="#FA3913"/>
</g>
<defs>
<clipPath id="clip0_155_449">
<rect width="73.5294" height="24" fill="white"/>
</clipPath>
</defs>
</svg>
