<svg width="1200" height="660" viewBox="0 0 1200 660" fill="none" xmlns="http://www.w3.org/2000/svg">
<g clip-path="url(#clip0_717_780)">
<rect width="1200" height="660" fill="#F7F7F7"/>
<g filter="url(#filter0_f_717_780)">
<path d="M259.695 473.279C298.557 494.831 345.672 489.941 364.371 484.802C463.251 466.855 331.603 617.846 194.079 666.207C56.5544 714.567 58.2743 579.26 35.6925 453.74C13.1106 328.219 211.117 446.338 259.695 473.279Z" fill="url(#paint0_linear_717_780)" fill-opacity="0.4"/>
</g>
<g filter="url(#filter1_f_717_780)">
<path d="M1176.11 133.279C1137.25 154.831 1090.14 149.941 1071.44 144.802C972.558 126.855 1104.21 277.846 1241.73 326.207C1379.25 374.567 1377.53 239.26 1400.12 113.74C1422.7 -11.7808 1224.69 106.338 1176.11 133.279Z" fill="url(#paint1_linear_717_780)" fill-opacity="0.2"/>
</g>
</g>
<defs>
<filter id="filter0_f_717_780" x="-166.094" y="197.031" width="764.934" height="679.221" filterUnits="userSpaceOnUse" color-interpolation-filters="sRGB">
<feFlood flood-opacity="0" result="BackgroundImageFix"/>
<feBlend mode="normal" in="SourceGraphic" in2="BackgroundImageFix" result="shape"/>
<feGaussianBlur stdDeviation="100" result="effect1_foregroundBlur_717_780"/>
</filter>
<filter id="filter1_f_717_780" x="836.969" y="-142.969" width="764.934" height="679.221" filterUnits="userSpaceOnUse" color-interpolation-filters="sRGB">
<feFlood flood-opacity="0" result="BackgroundImageFix"/>
<feBlend mode="normal" in="SourceGraphic" in2="BackgroundImageFix" result="shape"/>
<feGaussianBlur stdDeviation="100" result="effect1_foregroundBlur_717_780"/>
</filter>
<linearGradient id="paint0_linear_717_780" x1="418.09" y1="471.057" x2="28.5876" y2="574.588" gradientUnits="userSpaceOnUse">
<stop stop-color="#575EFF"/>
<stop offset="1" stop-color="#0085FF"/>
</linearGradient>
<linearGradient id="paint1_linear_717_780" x1="1017.72" y1="131.057" x2="1407.22" y2="234.588" gradientUnits="userSpaceOnUse">
<stop stop-color="#575EFF"/>
<stop offset="1" stop-color="#0085FF"/>
</linearGradient>
<clipPath id="clip0_717_780">
<rect width="1200" height="660" fill="white"/>
</clipPath>
</defs>
</svg>
