<svg width="42" height="36" viewBox="0 0 42 36" fill="none" xmlns="http://www.w3.org/2000/svg">
<circle cx="15" cy="15" r="15" fill="#AB57FF" fill-opacity="0.7"/>
<g clip-path="url(#clip0_528_3909)">
<path d="M38.875 6.75H35.8958V5.875C35.8958 4.84113 35.0547 4 34.0208 4C32.9869 4 32.1458 4.84113 32.1458 5.875V6.75H21.6458V5.875C21.6458 4.84113 20.8047 4 19.7708 4C18.7369 4 17.8958 4.84113 17.8958 5.875V6.77312C17.8427 6.75844 17.787 6.75 17.7292 6.75H15.2389C13.5158 6.75 12.1139 8.15188 12.1139 9.875V20.5208C12.1139 20.866 12.3938 21.1458 12.7389 21.1458C13.0841 21.1458 13.3639 20.866 13.3639 20.5208V13.1875H35.8958C36.2409 13.1875 36.5208 12.9077 36.5208 12.5625C36.5208 12.2173 36.2409 11.9375 35.8958 11.9375H13.3639V9.875C13.3639 8.84113 14.2051 8 15.2389 8H17.7292C17.787 8 17.8427 7.9915 17.8958 7.97688V8.78125C17.8958 9.81512 18.7369 10.6562 19.7708 10.6562C20.8047 10.6562 21.6458 9.81512 21.6458 8.78125V8H32.1458V8.78125C32.1458 9.81512 32.9869 10.6562 34.0208 10.6562C35.0547 10.6562 35.8958 9.81512 35.8958 8.78125V8H38.875C39.9089 8 40.75 8.84113 40.75 9.875V33.6246C40.75 34.2451 40.2452 34.75 39.6246 34.75C39.0041 34.75 38.4993 34.2451 38.4993 33.6246V32.0078C38.4993 31.6626 38.2194 31.3828 37.8743 31.3828H30.6042C30.2591 31.3828 29.9792 31.6626 29.9792 32.0078C29.9792 32.353 30.2591 32.6328 30.6042 32.6328H37.2493V33.6246C37.2493 34.0316 37.3522 34.4148 37.5333 34.75H12.375C11.7547 34.75 11.25 34.2453 11.25 33.625V32.6328H25.2391C25.5842 32.6328 25.8641 32.353 25.8641 32.0078C25.8641 31.6626 25.5842 31.3828 25.2391 31.3828H18.9943C20.0864 30.4422 20.7799 29.051 20.7799 27.5C20.7799 24.6741 18.4809 22.375 15.6549 22.375C12.829 22.375 10.5299 24.6741 10.5299 27.5C10.5299 29.051 11.2234 30.4422 12.3156 31.3828H10.625C10.2799 31.3828 10 31.6626 10 32.0078V33.625C10 34.9346 11.0654 36 12.375 36H39.6246C40.9344 36 42 34.9344 42 33.6246V9.875C42 8.15188 40.5981 6.75 38.875 6.75ZM20.3958 8.78125C20.3958 9.12587 20.1154 9.40625 19.7708 9.40625C19.4262 9.40625 19.1458 9.12587 19.1458 8.78125V5.875C19.1458 5.53038 19.4262 5.25 19.7708 5.25C20.1154 5.25 20.3958 5.53038 20.3958 5.875V8.78125ZM34.6458 8.78125C34.6458 9.12587 34.3654 9.40625 34.0208 9.40625C33.6762 9.40625 33.3958 9.12587 33.3958 8.78125V5.875C33.3958 5.53038 33.6762 5.25 34.0208 5.25C34.3654 5.25 34.6458 5.53038 34.6458 5.875V8.78125ZM11.7799 27.5C11.7799 25.3633 13.5182 23.625 15.6549 23.625C17.7916 23.625 19.5299 25.3633 19.5299 27.5C19.5299 29.6367 17.7916 31.375 15.6549 31.375C13.5182 31.375 11.7799 29.6367 11.7799 27.5Z" fill="black"/>
<path d="M39.2699 12.1206C39.1538 12.0044 38.9925 11.9375 38.8281 11.9375C38.6637 11.9375 38.5025 12.0044 38.3863 12.1206C38.27 12.2369 38.2031 12.3981 38.2031 12.5625C38.2031 12.7269 38.2699 12.8881 38.3863 13.0044C38.5026 13.1206 38.6637 13.1875 38.8281 13.1875C38.9925 13.1875 39.1538 13.1206 39.2699 13.0044C39.3862 12.8881 39.4531 12.7269 39.4531 12.5625C39.4531 12.3981 39.3863 12.2369 39.2699 12.1206Z" fill="black"/>
<path d="M28.6664 31.5656C28.5502 31.4494 28.389 31.3831 28.2246 31.3831C28.0602 31.3831 27.899 31.4494 27.7827 31.5656C27.6665 31.6825 27.5996 31.8431 27.5996 32.0075C27.5996 32.1725 27.6664 32.3331 27.7827 32.45C27.899 32.5662 28.0602 32.6325 28.2246 32.6325C28.389 32.6325 28.5502 32.5662 28.6664 32.45C28.7827 32.3331 28.8496 32.1719 28.8496 32.0075C28.8496 31.8431 28.7827 31.6825 28.6664 31.5656Z" fill="black"/>
<path d="M24.1406 23C22.8311 23 21.7656 24.0654 21.7656 25.375C21.7656 26.6846 22.8311 27.75 24.1406 27.75C25.4502 27.75 26.5156 26.6846 26.5156 25.375C26.5156 24.0654 25.4502 23 24.1406 23ZM24.1406 26.5C23.5203 26.5 23.0156 25.9953 23.0156 25.375C23.0156 24.7547 23.5203 24.25 24.1406 24.25C24.7609 24.25 25.2656 24.7547 25.2656 25.375C25.2656 25.9953 24.7609 26.5 24.1406 26.5Z" fill="black"/>
<path d="M29.9727 23C28.6631 23 27.5977 24.0654 27.5977 25.375C27.5977 26.6846 28.6631 27.75 29.9727 27.75C31.2822 27.75 32.3477 26.6846 32.3477 25.375C32.3477 24.0654 31.2822 23 29.9727 23ZM29.9727 26.5C29.3523 26.5 28.8477 25.9953 28.8477 25.375C28.8477 24.7547 29.3523 24.25 29.9727 24.25C30.593 24.25 31.0977 24.7547 31.0977 25.375C31.0977 25.9953 30.593 26.5 29.9727 26.5Z" fill="black"/>
<path d="M35.8066 23C34.4971 23 33.4316 24.0654 33.4316 25.375C33.4316 26.6846 34.4971 27.75 35.8066 27.75C37.1162 27.75 38.1816 26.6846 38.1816 25.375C38.1816 24.0654 37.1162 23 35.8066 23ZM35.8066 26.5C35.1863 26.5 34.6816 25.9953 34.6816 25.375C34.6816 24.7547 35.1863 24.25 35.8066 24.25C36.427 24.25 36.9316 24.7547 36.9316 25.375C36.9316 25.9953 36.427 26.5 35.8066 26.5Z" fill="black"/>
<path d="M18.3066 16.5C16.9971 16.5 15.9316 17.5654 15.9316 18.875C15.9316 20.1846 16.9971 21.25 18.3066 21.25C19.6162 21.25 20.6816 20.1846 20.6816 18.875C20.6816 17.5654 19.6162 16.5 18.3066 16.5ZM18.3066 20C17.6863 20 17.1816 19.4953 17.1816 18.875C17.1816 18.2547 17.6863 17.75 18.3066 17.75C18.927 17.75 19.4316 18.2547 19.4316 18.875C19.4316 19.4953 18.927 20 18.3066 20Z" fill="black"/>
<path d="M29.9727 16.5C28.6631 16.5 27.5977 17.5654 27.5977 18.875C27.5977 20.1846 28.6631 21.25 29.9727 21.25C31.2822 21.25 32.3477 20.1846 32.3477 18.875C32.3477 17.5654 31.2822 16.5 29.9727 16.5ZM29.9727 20C29.3523 20 28.8477 19.4953 28.8477 18.875C28.8477 18.2547 29.3523 17.75 29.9727 17.75C30.593 17.75 31.0977 18.2547 31.0977 18.875C31.0977 19.4953 30.593 20 29.9727 20Z" fill="black"/>
<path d="M35.8066 16.5C34.4971 16.5 33.4316 17.5654 33.4316 18.875C33.4316 20.1846 34.4971 21.25 35.8066 21.25C37.1162 21.25 38.1816 20.1846 38.1816 18.875C38.1816 17.5654 37.1162 16.5 35.8066 16.5ZM35.8066 20C35.1863 20 34.6816 19.4953 34.6816 18.875C34.6816 18.2547 35.1863 17.75 35.8066 17.75C36.427 17.75 36.9316 18.2547 36.9316 18.875C36.9316 19.4953 36.427 20 35.8066 20Z" fill="black"/>
<path d="M24.1406 16.5C22.8311 16.5 21.7656 17.5654 21.7656 18.875C21.7656 20.1846 22.8311 21.25 24.1406 21.25C25.4502 21.25 26.5156 20.1846 26.5156 18.875C26.5156 17.5654 25.4502 16.5 24.1406 16.5ZM24.1406 20C23.5203 20 23.0156 19.4953 23.0156 18.875C23.0156 18.2547 23.5203 17.75 24.1406 17.75C24.7609 17.75 25.2656 18.2547 25.2656 18.875C25.2656 19.4953 24.7609 20 24.1406 20Z" fill="black"/>
<path d="M17.8811 25.9768C17.637 25.7327 17.2413 25.7327 16.9971 25.9768L14.9618 28.0122L14.2662 27.3167C14.0221 27.0726 13.6265 27.0726 13.3823 27.3167C13.1382 27.5607 13.1382 27.9565 13.3823 28.2006L14.5198 29.3381C14.6371 29.4552 14.796 29.5211 14.9618 29.5211C15.1275 29.5211 15.2865 29.4552 15.4037 29.3381L17.8811 26.8607C18.1251 26.6166 18.1251 26.2209 17.8811 25.9768Z" fill="black"/>
</g>
<defs>
<clipPath id="clip0_528_3909">
<rect width="32" height="32" fill="white" transform="translate(10 4)"/>
</clipPath>
</defs>
</svg>
