<svg width="1440" height="739" viewBox="0 0 1440 739" fill="none" xmlns="http://www.w3.org/2000/svg">
<g clip-path="url(#clip0_202_1028)">
<rect width="1440" height="739" fill="#0085FF" fill-opacity="0.05"/>
<path d="M1295.08 488.994C1324.58 463.515 1359.57 445.201 1397.32 435.483C1435.07 425.765 1474.55 424.907 1512.69 432.974C1550.83 441.042 1586.58 457.818 1617.16 481.991C1647.74 506.163 1672.32 537.079 1688.97 572.322C1705.63 607.566 1713.91 646.182 1713.17 685.156C1712.43 724.129 1702.69 762.404 1684.71 796.989C1666.73 831.575 1641 861.536 1609.52 884.531C1578.05 907.526 1541.68 922.933 1503.27 929.548L1498.29 900.66C1532.25 894.812 1564.4 881.191 1592.23 860.862C1620.06 840.532 1642.81 814.045 1658.7 783.468C1674.6 752.892 1683.21 719.054 1683.86 684.599C1684.52 650.144 1677.19 616.004 1662.47 584.847C1647.75 553.689 1626.02 526.358 1598.98 504.987C1571.95 483.617 1540.34 468.786 1506.62 461.653C1472.91 454.521 1438 455.28 1404.63 463.871C1371.25 472.463 1340.32 488.653 1314.24 511.179L1295.08 488.994Z" fill="#0085FF" fill-opacity="0.05"/>
<path d="M1621.74 785.814C1617.79 824.594 1604.93 861.935 1584.16 894.92C1563.39 927.906 1535.27 955.643 1502.01 975.964C1468.74 996.285 1431.23 1008.64 1392.4 1012.07C1353.57 1015.49 1314.47 1009.89 1278.17 995.705C1241.86 981.519 1209.32 959.132 1183.1 930.291C1156.88 901.45 1137.68 866.936 1127 829.447C1116.32 791.958 1114.46 752.507 1121.55 714.177C1128.64 675.848 1144.5 639.677 1167.88 608.49L1191.34 626.076C1170.66 653.647 1156.64 685.625 1150.37 719.511C1144.1 753.397 1145.75 788.274 1155.19 821.418C1164.63 854.561 1181.6 885.073 1204.79 910.57C1227.97 936.068 1256.74 955.86 1288.83 968.401C1320.93 980.942 1355.5 985.892 1389.82 982.865C1424.15 979.837 1457.32 968.914 1486.72 950.949C1516.13 932.983 1540.99 908.462 1559.35 879.301C1577.71 850.139 1589.09 817.127 1592.58 782.843L1621.74 785.814Z" fill="#0085FF" fill-opacity="0.05"/>
<path d="M1332.96 691.089C1358.02 661.231 1389.64 637.571 1425.36 621.957C1461.07 606.343 1499.92 599.198 1538.85 601.08C1577.79 602.962 1615.76 613.82 1649.8 632.807C1683.85 651.793 1713.04 678.393 1735.1 710.529C1757.17 742.665 1771.5 779.467 1776.98 818.059C1782.47 856.652 1778.96 895.99 1766.73 933.001C1754.49 970.012 1733.87 1003.69 1706.46 1031.41C1679.06 1059.13 1645.61 1080.14 1608.75 1092.8L1599.23 1065.07C1631.82 1053.89 1661.39 1035.31 1685.62 1010.8C1709.84 986.298 1728.08 956.521 1738.89 923.801C1749.71 891.081 1752.81 856.303 1747.96 822.185C1743.11 788.066 1730.44 755.531 1710.94 727.12C1691.43 698.71 1665.62 675.193 1635.53 658.408C1605.43 641.623 1571.86 632.023 1537.44 630.359C1503.02 628.695 1468.68 635.012 1437.1 648.816C1405.52 662.62 1377.57 683.537 1355.41 709.934L1332.96 691.089Z" fill="#0085FF" fill-opacity="0.05"/>
<path d="M1632.83 954.428C1603.58 980.194 1568.77 998.85 1531.12 1008.94C1493.47 1019.02 1453.99 1020.27 1415.78 1012.57C1377.56 1004.88 1341.65 988.453 1310.83 964.58C1280.02 940.707 1255.14 910.033 1238.14 874.954C1221.14 839.875 1212.48 801.342 1212.84 762.363C1213.2 723.384 1222.57 685.016 1240.21 650.256C1257.85 615.496 1283.29 585.285 1314.54 561.983C1345.79 538.682 1382 522.92 1420.35 515.93L1425.6 544.769C1391.7 550.948 1359.69 564.883 1332.06 585.483C1304.43 606.083 1281.94 632.792 1266.35 663.522C1250.75 694.253 1242.47 728.173 1242.15 762.633C1241.84 797.093 1249.49 831.159 1264.52 862.171C1279.55 893.184 1301.54 920.301 1328.78 941.407C1356.03 962.512 1387.78 977.033 1421.56 983.835C1455.35 990.638 1490.25 989.538 1523.53 980.621C1556.82 971.703 1587.6 955.211 1613.46 932.432L1632.83 954.428Z" fill="#0085FF" fill-opacity="0.05"/>
</g>
<defs>
<clipPath id="clip0_202_1028">
<rect width="1440" height="739" fill="white"/>
</clipPath>
</defs>
</svg>
