<svg width="40" height="34" viewBox="0 0 40 34" fill="none" xmlns="http://www.w3.org/2000/svg">
<circle cx="15" cy="15" r="15" fill="#6AD7C3" fill-opacity="0.8"/>
<g clip-path="url(#clip0_528_3955)">
<path d="M37.3205 27.6719H12.6795C11.969 27.6711 11.2879 27.3885 10.7855 26.8861C10.2832 26.3837 10.0007 25.7025 10 24.992V9.67046C10.0008 8.96006 10.2834 8.27899 10.7857 7.77666C11.288 7.27433 11.9691 6.99177 12.6795 6.99097H25.4861C25.6415 6.99097 25.7905 7.0527 25.9004 7.16258C26.0103 7.27247 26.072 7.4215 26.072 7.5769C26.072 7.7323 26.0103 7.88134 25.9004 7.99122C25.7905 8.10111 25.6415 8.16284 25.4861 8.16284H12.6795C12.2798 8.16328 11.8966 8.32225 11.6139 8.60489C11.3313 8.88753 11.1723 9.27075 11.1719 9.67046V24.992C11.1722 25.3918 11.3312 25.7751 11.6138 26.0578C11.8965 26.3405 12.2797 26.4996 12.6795 26.5H37.3205C37.7203 26.4996 38.1035 26.3405 38.3862 26.0578C38.6688 25.7751 38.8278 25.3918 38.8281 24.992V13.1875C38.8281 13.0321 38.8899 12.8831 38.9997 12.7732C39.1096 12.6633 39.2587 12.6016 39.4141 12.6016C39.5695 12.6016 39.7185 12.6633 39.8284 12.7732C39.9383 12.8831 40 13.0321 40 13.1875V24.992C39.9993 25.7025 39.7168 26.3837 39.2145 26.8861C38.7121 27.3885 38.031 27.6711 37.3205 27.6719Z" fill="black"/>
<path d="M29.6354 32.9416C29.537 32.9417 29.4402 32.9171 29.3539 32.87C29.2675 32.8229 29.1944 32.7548 29.1413 32.672L25.7663 27.4019C25.6825 27.271 25.6541 27.1122 25.6874 26.9604C25.7207 26.8086 25.813 26.6763 25.9438 26.5925C26.0747 26.5087 26.2335 26.4803 26.3853 26.5136C26.5371 26.5469 26.6695 26.6391 26.7533 26.77L30.1277 32.0401C30.1845 32.1286 30.2164 32.2307 30.2201 32.3358C30.2238 32.4409 30.1991 32.5451 30.1487 32.6373C30.0983 32.7296 30.024 32.8067 29.9336 32.8603C29.8431 32.914 29.7399 32.9423 29.6348 32.9424L29.6354 32.9416Z" fill="black"/>
<path d="M20.365 32.9415C20.2598 32.9415 20.1566 32.9131 20.0662 32.8595C19.9757 32.8058 19.9014 32.7288 19.851 32.6365C19.8006 32.5442 19.776 32.4401 19.7797 32.335C19.7834 32.2299 19.8153 32.1277 19.8721 32.0392L23.2471 26.7692C23.3309 26.6383 23.4632 26.546 23.615 26.5128C23.7668 26.4795 23.9256 26.5078 24.0565 26.5916C24.1874 26.6754 24.2796 26.8078 24.3129 26.9596C24.3462 27.1114 24.3178 27.2702 24.234 27.401L20.859 32.6715C20.806 32.7544 20.7329 32.8226 20.6465 32.8698C20.5602 32.917 20.4634 32.9416 20.365 32.9415Z" fill="black"/>
<path d="M32.2002 33.003H17.8008C17.6454 33.003 17.4963 32.9413 17.3865 32.8314C17.2766 32.7215 17.2148 32.5725 17.2148 32.4171C17.2148 32.2617 17.2766 32.1126 17.3865 32.0027C17.4963 31.8928 17.6454 31.8311 17.8008 31.8311H32.2002C32.3556 31.8311 32.5046 31.8928 32.6145 32.0027C32.7244 32.1126 32.7861 32.2617 32.7861 32.4171C32.7861 32.5725 32.7244 32.7215 32.6145 32.8314C32.5046 32.9413 32.3556 33.003 32.2002 33.003Z" fill="black"/>
<path d="M24.9322 17.7834C24.287 17.7834 23.6562 17.5921 23.1198 17.2336C22.5833 16.8751 22.1652 16.3656 21.9182 15.7695C21.6713 15.1734 21.6067 14.5175 21.7326 13.8847C21.8585 13.2519 22.1692 12.6706 22.6254 12.2143C23.0817 11.7581 23.6629 11.4474 24.2958 11.3215C24.9286 11.1957 25.5845 11.2603 26.1806 11.5072C26.7767 11.7541 27.2862 12.1722 27.6447 12.7087C28.0031 13.2452 28.1945 13.8759 28.1945 14.5211C28.1935 15.386 27.8495 16.2152 27.2379 16.8268C26.6263 17.4384 25.7971 17.7824 24.9322 17.7834ZM24.9322 12.4307C24.5187 12.4307 24.1146 12.5533 23.7708 12.783C23.4271 13.0127 23.1591 13.3392 23.0009 13.7212C22.8427 14.1031 22.8013 14.5234 22.882 14.9289C22.9626 15.3344 23.1617 15.7069 23.4541 15.9992C23.7464 16.2916 24.1189 16.4907 24.5244 16.5713C24.9299 16.652 25.3502 16.6106 25.7321 16.4524C26.1141 16.2942 26.4406 16.0262 26.6703 15.6825C26.9 15.3387 27.0226 14.9346 27.0226 14.5211C27.022 13.9669 26.8015 13.4356 26.4096 13.0437C26.0177 12.6518 25.4864 12.4313 24.9322 12.4307Z" fill="black"/>
<path d="M28.9468 23.4036H20.918C20.7626 23.4036 20.6135 23.3418 20.5036 23.2319C20.3938 23.1221 20.332 22.973 20.332 22.8176V21.2122C20.3382 19.9961 20.8256 18.8319 21.6876 17.9742C22.5497 17.1165 23.7163 16.6349 24.9324 16.6349C26.1485 16.6349 27.3151 17.1165 28.1772 17.9742C29.0392 18.8319 29.5266 19.9961 29.5328 21.2122V22.8176C29.5328 22.973 29.471 23.1221 29.3612 23.2319C29.2513 23.3418 29.1022 23.4036 28.9468 23.4036ZM21.5039 22.2317H28.3609V21.2122C28.3556 20.3063 27.9921 19.4394 27.3497 18.8008C26.7073 18.1621 25.8382 17.8036 24.9324 17.8036C24.0266 17.8036 23.1575 18.1621 22.5151 18.8008C21.8728 19.4394 21.5092 20.3063 21.5039 21.2122V22.2317Z" fill="black"/>
<path d="M36.0172 12.4258H28.7246C28.3828 12.4254 28.0552 12.2895 27.8135 12.0478C27.5718 11.8061 27.4359 11.4785 27.4355 11.1367V6.28595C27.4359 5.94418 27.5718 5.61652 27.8135 5.37486C28.0552 5.13319 28.3828 4.99726 28.7246 4.99689H36.0172C36.359 4.99726 36.6866 5.13319 36.9283 5.37486C37.1699 5.61652 37.3059 5.94418 37.3062 6.28595V11.1367C37.3059 11.4785 37.1699 11.8061 36.9283 12.0478C36.6866 12.2895 36.359 12.4254 36.0172 12.4258ZM28.7246 6.16876C28.6935 6.16876 28.6637 6.18111 28.6417 6.20309C28.6198 6.22506 28.6074 6.25487 28.6074 6.28595V11.1367C28.6074 11.1678 28.6198 11.1976 28.6417 11.2196C28.6637 11.2415 28.6935 11.2539 28.7246 11.2539H36.0172C36.0483 11.2539 36.0781 11.2415 36.1001 11.2196C36.122 11.1976 36.1344 11.1678 36.1344 11.1367V6.28595C36.1344 6.25487 36.122 6.22506 36.1001 6.20309C36.0781 6.18111 36.0483 6.16876 36.0172 6.16876H28.7246Z" fill="black"/>
<path d="M39.4138 11.2735C39.3207 11.2735 39.229 11.2513 39.1462 11.2088L36.453 9.82598C36.3572 9.77676 36.2768 9.70206 36.2206 9.6101C36.1645 9.51814 36.1348 9.41248 36.1348 9.30473V8.04836C36.1348 7.93855 36.1656 7.83095 36.2238 7.73784C36.282 7.64472 36.3652 7.56984 36.4639 7.52172L39.1571 6.20922C39.2465 6.16567 39.3455 6.14559 39.4448 6.15084C39.5441 6.1561 39.6404 6.18654 39.7246 6.23928C39.8089 6.29203 39.8784 6.36535 39.9265 6.45234C39.9746 6.53934 39.9998 6.63714 39.9997 6.73656V10.6875C39.9997 10.8429 39.938 10.992 39.8281 11.1019C39.7182 11.2117 39.5692 11.2735 39.4138 11.2735ZM37.3066 8.94719L38.8279 9.72813V7.67348L37.3066 8.41469V8.94719Z" fill="black"/>
</g>
<defs>
<clipPath id="clip0_528_3955">
<rect width="30" height="30" fill="white" transform="translate(10 4)"/>
</clipPath>
</defs>
</svg>
