<svg width="1440" height="689" viewBox="0 0 1440 689" fill="none" xmlns="http://www.w3.org/2000/svg">
<g clip-path="url(#clip0_717_756)">
<rect width="1440" height="699" transform="matrix(-1 0 0 1 1440 0)" fill="#F7F7F7"/>
<g filter="url(#filter0_f_717_756)">
<path d="M992.91 14.872C1028.85 -11.2675 1042.82 -58.067 1045.32 -78.1993C1067.32 -180.161 1159.28 17.5003 1151 170.709C1142.73 323.918 1014.32 256.387 885.64 216.534C756.957 176.681 947.988 47.5464 992.91 14.872Z" fill="url(#paint0_linear_717_756)" fill-opacity="0.6"/>
</g>
<g filter="url(#filter1_f_717_756)">
<path d="M107.056 656.729C134.419 691.745 179.703 705.639 198.924 708.209C296.963 730.294 116.81 817.898 -28.6802 808.724C-174.171 799.55 -119.757 675.654 -91.5374 551.28C-63.3177 426.906 72.8524 612.96 107.056 656.729Z" fill="url(#paint1_linear_717_756)" fill-opacity="0.2"/>
</g>
</g>
<defs>
<filter id="filter0_f_717_756" x="641.779" y="-306.229" width="709.75" height="772.472" filterUnits="userSpaceOnUse" color-interpolation-filters="sRGB">
<feFlood flood-opacity="0" result="BackgroundImageFix"/>
<feBlend mode="normal" in="SourceGraphic" in2="BackgroundImageFix" result="shape"/>
<feGaussianBlur stdDeviation="100" result="effect1_foregroundBlur_717_756"/>
</filter>
<filter id="filter1_f_717_756" x="-325.289" y="309.106" width="752.158" height="700.288" filterUnits="userSpaceOnUse" color-interpolation-filters="sRGB">
<feFlood flood-opacity="0" result="BackgroundImageFix"/>
<feBlend mode="normal" in="SourceGraphic" in2="BackgroundImageFix" result="shape"/>
<feGaussianBlur stdDeviation="100" result="effect1_foregroundBlur_717_756"/>
</filter>
<linearGradient id="paint0_linear_717_756" x1="1053.46" y1="-135.539" x2="962.002" y2="274.033" gradientUnits="userSpaceOnUse">
<stop stop-color="#575EFF"/>
<stop offset="1" stop-color="#0085FF"/>
</linearGradient>
<linearGradient id="paint1_linear_717_756" x1="253.746" y1="716.529" x2="-145.263" y2="659.762" gradientUnits="userSpaceOnUse">
<stop stop-color="#575EFF"/>
<stop offset="1" stop-color="#0085FF"/>
</linearGradient>
<clipPath id="clip0_717_756">
<rect width="1440" height="689" fill="white" transform="matrix(-1 0 0 1 1440 0)"/>
</clipPath>
</defs>
</svg>
